<mxfile host="app.diagrams.net" modified="2024-06-14T10:44:09.512Z" agent="Mozilla/5.0 (Windows NT 10.0; Win64; x64) AppleWebKit/537.36 (KHTML, like Gecko) Chrome/125.0.0.0 Safari/537.36" etag="PBW8OQ_OqWmGccBrqFuM" version="24.5.4" type="device">
  <diagram name="Page-1" id="9GMBENFzi5bszGAwUvHH">
    <mxGraphModel dx="1050" dy="565" grid="1" gridSize="10" guides="1" tooltips="1" connect="1" arrows="1" fold="1" page="1" pageScale="1" pageWidth="1169" pageHeight="827" math="0" shadow="0">
      <root>
        <mxCell id="0" />
        <mxCell id="1" parent="0" />
        <mxCell id="wHdt1syj7IA_luRF6dRk-1" style="edgeStyle=orthogonalEdgeStyle;rounded=0;orthogonalLoop=1;jettySize=auto;html=1;entryX=0;entryY=0.5;entryDx=0;entryDy=0;" edge="1" parent="1" source="wHdt1syj7IA_luRF6dRk-2" target="wHdt1syj7IA_luRF6dRk-5">
          <mxGeometry relative="1" as="geometry" />
        </mxCell>
        <mxCell id="wHdt1syj7IA_luRF6dRk-2" value="П" style="ellipse;fillColor=strokeColor;html=1;" vertex="1" parent="1">
          <mxGeometry x="320" y="100" width="30" height="30" as="geometry" />
        </mxCell>
        <mxCell id="wHdt1syj7IA_luRF6dRk-3" value="" style="ellipse;html=1;shape=endState;fillColor=strokeColor;" vertex="1" parent="1">
          <mxGeometry x="805" y="655" width="30" height="30" as="geometry" />
        </mxCell>
        <mxCell id="wHdt1syj7IA_luRF6dRk-4" style="edgeStyle=orthogonalEdgeStyle;rounded=0;orthogonalLoop=1;jettySize=auto;html=1;entryX=1;entryY=0.5;entryDx=0;entryDy=0;" edge="1" parent="1" source="wHdt1syj7IA_luRF6dRk-5" target="wHdt1syj7IA_luRF6dRk-7">
          <mxGeometry relative="1" as="geometry" />
        </mxCell>
        <mxCell id="wHdt1syj7IA_luRF6dRk-5" value="Введення реєстраційних даних" style="html=1;align=center;verticalAlign=top;rounded=1;absoluteArcSize=1;arcSize=10;dashed=0;whiteSpace=wrap;" vertex="1" parent="1">
          <mxGeometry x="480" y="95" width="140" height="40" as="geometry" />
        </mxCell>
        <mxCell id="wHdt1syj7IA_luRF6dRk-6" style="edgeStyle=orthogonalEdgeStyle;rounded=0;orthogonalLoop=1;jettySize=auto;html=1;entryX=0;entryY=0.5;entryDx=0;entryDy=0;exitX=0.5;exitY=1;exitDx=0;exitDy=0;" edge="1" parent="1" source="wHdt1syj7IA_luRF6dRk-7" target="wHdt1syj7IA_luRF6dRk-10">
          <mxGeometry relative="1" as="geometry" />
        </mxCell>
        <mxCell id="wHdt1syj7IA_luRF6dRk-7" value="Вхід в систему" style="html=1;align=center;verticalAlign=top;rounded=1;absoluteArcSize=1;arcSize=10;dashed=0;whiteSpace=wrap;" vertex="1" parent="1">
          <mxGeometry x="350" y="150" width="140" height="40" as="geometry" />
        </mxCell>
        <mxCell id="wHdt1syj7IA_luRF6dRk-8" style="edgeStyle=orthogonalEdgeStyle;rounded=0;orthogonalLoop=1;jettySize=auto;html=1;entryX=0.5;entryY=0;entryDx=0;entryDy=0;" edge="1" parent="1" source="wHdt1syj7IA_luRF6dRk-10" target="wHdt1syj7IA_luRF6dRk-13">
          <mxGeometry relative="1" as="geometry" />
        </mxCell>
        <mxCell id="wHdt1syj7IA_luRF6dRk-9" value="Перехід на сторінку" style="edgeLabel;html=1;align=center;verticalAlign=middle;resizable=0;points=[];" vertex="1" connectable="0" parent="wHdt1syj7IA_luRF6dRk-8">
          <mxGeometry x="-0.2948" relative="1" as="geometry">
            <mxPoint x="-34" y="-10" as="offset" />
          </mxGeometry>
        </mxCell>
        <mxCell id="wHdt1syj7IA_luRF6dRk-10" value="Переадресація на сторінку профілю" style="html=1;align=center;verticalAlign=top;rounded=1;absoluteArcSize=1;arcSize=10;dashed=0;whiteSpace=wrap;" vertex="1" parent="1">
          <mxGeometry x="565" y="190" width="140" height="40" as="geometry" />
        </mxCell>
        <mxCell id="wHdt1syj7IA_luRF6dRk-11" style="edgeStyle=orthogonalEdgeStyle;rounded=0;orthogonalLoop=1;jettySize=auto;html=1;entryX=0.5;entryY=0;entryDx=0;entryDy=0;" edge="1" parent="1" source="wHdt1syj7IA_luRF6dRk-13" target="wHdt1syj7IA_luRF6dRk-21">
          <mxGeometry relative="1" as="geometry" />
        </mxCell>
        <mxCell id="wHdt1syj7IA_luRF6dRk-12" style="edgeStyle=orthogonalEdgeStyle;rounded=0;orthogonalLoop=1;jettySize=auto;html=1;entryX=0.5;entryY=0;entryDx=0;entryDy=0;" edge="1" parent="1" source="wHdt1syj7IA_luRF6dRk-13" target="wHdt1syj7IA_luRF6dRk-19">
          <mxGeometry relative="1" as="geometry" />
        </mxCell>
        <mxCell id="wHdt1syj7IA_luRF6dRk-13" value="" style="rhombus;" vertex="1" parent="1">
          <mxGeometry x="535" y="280" width="30" height="30" as="geometry" />
        </mxCell>
        <mxCell id="wHdt1syj7IA_luRF6dRk-14" style="edgeStyle=orthogonalEdgeStyle;rounded=0;orthogonalLoop=1;jettySize=auto;html=1;entryX=0.5;entryY=0;entryDx=0;entryDy=0;" edge="1" parent="1" source="wHdt1syj7IA_luRF6dRk-15" target="wHdt1syj7IA_luRF6dRk-31">
          <mxGeometry relative="1" as="geometry" />
        </mxCell>
        <mxCell id="wHdt1syj7IA_luRF6dRk-15" value="Перегляд інформації теми" style="html=1;align=center;verticalAlign=top;rounded=1;absoluteArcSize=1;arcSize=10;dashed=0;whiteSpace=wrap;" vertex="1" parent="1">
          <mxGeometry x="410" y="465" width="140" height="40" as="geometry" />
        </mxCell>
        <mxCell id="wHdt1syj7IA_luRF6dRk-16" style="edgeStyle=orthogonalEdgeStyle;rounded=0;orthogonalLoop=1;jettySize=auto;html=1;" edge="1" parent="1" source="wHdt1syj7IA_luRF6dRk-17">
          <mxGeometry relative="1" as="geometry">
            <mxPoint x="820" y="620" as="targetPoint" />
          </mxGeometry>
        </mxCell>
        <mxCell id="wHdt1syj7IA_luRF6dRk-17" value="Редагування теми та тестування" style="html=1;align=center;verticalAlign=top;rounded=1;absoluteArcSize=1;arcSize=10;dashed=0;whiteSpace=wrap;" vertex="1" parent="1">
          <mxGeometry x="750" y="540" width="140" height="40" as="geometry" />
        </mxCell>
        <mxCell id="wHdt1syj7IA_luRF6dRk-18" style="edgeStyle=orthogonalEdgeStyle;rounded=0;orthogonalLoop=1;jettySize=auto;html=1;entryX=0.5;entryY=0;entryDx=0;entryDy=0;" edge="1" parent="1" source="wHdt1syj7IA_luRF6dRk-19" target="wHdt1syj7IA_luRF6dRk-27">
          <mxGeometry relative="1" as="geometry" />
        </mxCell>
        <mxCell id="wHdt1syj7IA_luRF6dRk-19" value="Перегляд створених тем" style="html=1;align=center;verticalAlign=top;rounded=1;absoluteArcSize=1;arcSize=10;dashed=0;whiteSpace=wrap;" vertex="1" parent="1">
          <mxGeometry x="580" y="330" width="140" height="40" as="geometry" />
        </mxCell>
        <mxCell id="wHdt1syj7IA_luRF6dRk-20" style="edgeStyle=orthogonalEdgeStyle;rounded=0;orthogonalLoop=1;jettySize=auto;html=1;exitX=0.5;exitY=1;exitDx=0;exitDy=0;" edge="1" parent="1" source="wHdt1syj7IA_luRF6dRk-21">
          <mxGeometry relative="1" as="geometry">
            <mxPoint x="650" y="390" as="targetPoint" />
            <Array as="points">
              <mxPoint x="450" y="390" />
            </Array>
          </mxGeometry>
        </mxCell>
        <mxCell id="wHdt1syj7IA_luRF6dRk-21" value="Налаштування профілю" style="html=1;align=center;verticalAlign=top;rounded=1;absoluteArcSize=1;arcSize=10;dashed=0;whiteSpace=wrap;" vertex="1" parent="1">
          <mxGeometry x="380" y="330" width="140" height="40" as="geometry" />
        </mxCell>
        <mxCell id="wHdt1syj7IA_luRF6dRk-22" style="edgeStyle=orthogonalEdgeStyle;rounded=0;orthogonalLoop=1;jettySize=auto;html=1;entryX=0.5;entryY=0;entryDx=0;entryDy=0;" edge="1" parent="1" source="wHdt1syj7IA_luRF6dRk-23" target="wHdt1syj7IA_luRF6dRk-17">
          <mxGeometry relative="1" as="geometry" />
        </mxCell>
        <mxCell id="wHdt1syj7IA_luRF6dRk-23" value="Перегляд створених користувачем тем" style="html=1;align=center;verticalAlign=top;rounded=1;absoluteArcSize=1;arcSize=10;dashed=0;whiteSpace=wrap;" vertex="1" parent="1">
          <mxGeometry x="750" y="465" width="140" height="40" as="geometry" />
        </mxCell>
        <mxCell id="wHdt1syj7IA_luRF6dRk-24" value="" style="edgeStyle=orthogonalEdgeStyle;rounded=0;orthogonalLoop=1;jettySize=auto;html=1;" edge="1" parent="1" source="wHdt1syj7IA_luRF6dRk-27" target="wHdt1syj7IA_luRF6dRk-15">
          <mxGeometry relative="1" as="geometry" />
        </mxCell>
        <mxCell id="wHdt1syj7IA_luRF6dRk-25" style="edgeStyle=orthogonalEdgeStyle;rounded=0;orthogonalLoop=1;jettySize=auto;html=1;entryX=0.5;entryY=0;entryDx=0;entryDy=0;" edge="1" parent="1" source="wHdt1syj7IA_luRF6dRk-27" target="wHdt1syj7IA_luRF6dRk-23">
          <mxGeometry relative="1" as="geometry" />
        </mxCell>
        <mxCell id="wHdt1syj7IA_luRF6dRk-26" style="edgeStyle=orthogonalEdgeStyle;rounded=0;orthogonalLoop=1;jettySize=auto;html=1;entryX=0.5;entryY=0;entryDx=0;entryDy=0;" edge="1" parent="1" source="wHdt1syj7IA_luRF6dRk-27" target="wHdt1syj7IA_luRF6dRk-29">
          <mxGeometry relative="1" as="geometry" />
        </mxCell>
        <mxCell id="wHdt1syj7IA_luRF6dRk-27" value="" style="rhombus;" vertex="1" parent="1">
          <mxGeometry x="635" y="414" width="30" height="30" as="geometry" />
        </mxCell>
        <mxCell id="wHdt1syj7IA_luRF6dRk-28" style="edgeStyle=orthogonalEdgeStyle;rounded=0;orthogonalLoop=1;jettySize=auto;html=1;entryX=0.5;entryY=0;entryDx=0;entryDy=0;exitX=0.5;exitY=1;exitDx=0;exitDy=0;" edge="1" parent="1" source="wHdt1syj7IA_luRF6dRk-29" target="wHdt1syj7IA_luRF6dRk-3">
          <mxGeometry relative="1" as="geometry">
            <Array as="points">
              <mxPoint x="650" y="620" />
              <mxPoint x="820" y="620" />
            </Array>
          </mxGeometry>
        </mxCell>
        <mxCell id="wHdt1syj7IA_luRF6dRk-29" value="Створення теми та тестування" style="html=1;align=center;verticalAlign=top;rounded=1;absoluteArcSize=1;arcSize=10;dashed=0;whiteSpace=wrap;" vertex="1" parent="1">
          <mxGeometry x="580" y="465" width="140" height="40" as="geometry" />
        </mxCell>
        <mxCell id="wHdt1syj7IA_luRF6dRk-30" style="edgeStyle=orthogonalEdgeStyle;rounded=0;orthogonalLoop=1;jettySize=auto;html=1;entryX=0.5;entryY=0;entryDx=0;entryDy=0;" edge="1" parent="1" source="wHdt1syj7IA_luRF6dRk-31" target="wHdt1syj7IA_luRF6dRk-34">
          <mxGeometry relative="1" as="geometry" />
        </mxCell>
        <mxCell id="wHdt1syj7IA_luRF6dRk-31" value="Проходження тестування" style="html=1;align=center;verticalAlign=top;rounded=1;absoluteArcSize=1;arcSize=10;dashed=0;whiteSpace=wrap;" vertex="1" parent="1">
          <mxGeometry x="410" y="540" width="140" height="40" as="geometry" />
        </mxCell>
        <mxCell id="wHdt1syj7IA_luRF6dRk-32" style="edgeStyle=orthogonalEdgeStyle;rounded=0;orthogonalLoop=1;jettySize=auto;html=1;entryX=0;entryY=0.5;entryDx=0;entryDy=0;exitX=0.5;exitY=1;exitDx=0;exitDy=0;" edge="1" parent="1" source="wHdt1syj7IA_luRF6dRk-34" target="wHdt1syj7IA_luRF6dRk-36">
          <mxGeometry relative="1" as="geometry" />
        </mxCell>
        <mxCell id="wHdt1syj7IA_luRF6dRk-33" value="Переадресація &lt;br&gt;користувача" style="edgeLabel;html=1;align=center;verticalAlign=middle;resizable=0;points=[];" vertex="1" connectable="0" parent="wHdt1syj7IA_luRF6dRk-32">
          <mxGeometry x="-0.1776" y="2" relative="1" as="geometry">
            <mxPoint x="-81" y="2" as="offset" />
          </mxGeometry>
        </mxCell>
        <mxCell id="wHdt1syj7IA_luRF6dRk-34" value="Отримання результату" style="html=1;align=center;verticalAlign=top;rounded=1;absoluteArcSize=1;arcSize=10;dashed=0;whiteSpace=wrap;" vertex="1" parent="1">
          <mxGeometry x="410" y="610" width="140" height="40" as="geometry" />
        </mxCell>
        <mxCell id="wHdt1syj7IA_luRF6dRk-35" style="edgeStyle=orthogonalEdgeStyle;rounded=0;orthogonalLoop=1;jettySize=auto;html=1;entryX=0;entryY=0.5;entryDx=0;entryDy=0;" edge="1" parent="1" source="wHdt1syj7IA_luRF6dRk-36" target="wHdt1syj7IA_luRF6dRk-3">
          <mxGeometry relative="1" as="geometry" />
        </mxCell>
        <mxCell id="wHdt1syj7IA_luRF6dRk-36" value="Перегляд сторінки профілю" style="html=1;align=center;verticalAlign=top;rounded=1;absoluteArcSize=1;arcSize=10;dashed=0;whiteSpace=wrap;" vertex="1" parent="1">
          <mxGeometry x="585" y="650" width="140" height="40" as="geometry" />
        </mxCell>
      </root>
    </mxGraphModel>
  </diagram>
</mxfile>
